<svg width="88" height="96" viewBox="0 0 88 96" fill="none" xmlns="http://www.w3.org/2000/svg">
<g id="User 07a">
<g id="Group 10">
<g id="Group 11">
<g id="Group 11_2">
<g id="Group 2">
<g id="Group 14">
<g id="Path 48">
<path id="Combined Shape" d="M32.48 55.9623V56.1174C32.4373 59.3999 29.6773 61.8682 24.2 63.5223C30.7999 68.3221 37.4001 72.1623 44 72.1623C50.5999 72.1623 57.2001 68.3221 63.8 63.5223C58.3599 61.8663 55.5999 59.3943 55.52 56.1063C55.52 55.5202 55.5243 54.6879 55.5283 53.1251C55.5283 52.8769 55.5289 52.6228 55.5301 52.3626C55.9236 52.4181 55.8901 52.3828 55.5301 52.2827C55.5409 48.1719 55.5585 42.6441 55.583 37.0263C60.7425 30.3385 58.8471 22.4981 57.2304 22.6936C55.2486 22.9351 38.0755 6.63865 34.7815 5.80309C31.4875 4.96753 23.12 7.66501 21.68 15.18C20.24 22.695 19.6381 41.6375 25.1 49.2C26.6542 51.3521 29.1022 52.1939 32.444 51.7254C32.4487 53.2983 32.458 54.181 32.48 55.9623Z" fill="#C17154"/>
<g id="Path 48_2">
<path id="Path 48_3" d="M32.48 51.72C40.4 50.82 45.44 47.4 45.44 47.4C45.44 47.4 39.9896 54.6421 32.48 56.04V51.72Z" fill="#9F553B"/>
</g>
</g>
<path id="Path 22" d="M58.22 37.14C60.7004 31.1748 70.64 19.0259 62.072 11.4659C59.192 -2.57411 43.28 -1.01999 32.66 2.22002C25.5223 4.39766 20.132 8.70002 18.98 5.46002C11.78 11.4659 15.3858 17.34 20.132 19.0259C24.4398 20.5559 31.724 22.0859 44.1102 20.6459C46.3227 20.3885 45.8594 27.1648 47.0417 27.8974C48.8154 28.9965 50.192 22.0859 55.0549 24.1609C59.9178 26.236 57.032 35.8573 51.812 35.8573C50.012 35.8573 49.112 40.8063 53.972 43.1463C57.5 44.88 56.6083 41.0161 58.22 37.14Z" fill="#40251D"/>
</g>
</g>
</g>
</g>
</g>
<g id="Group 21">
<path id="Combined Shape_2" d="M81.8 74.5109C85.2272 81.4794 87.2 97.5509 87.2 97.5509H0.799999C0.799999 97.5509 2.77352 81.4776 6.2 74.5109C9.62648 67.5442 29.636 61.0826 29.636 61.0826C33.4927 69 54.6589 69 58.3536 61.08C58.3536 61.08 78.3728 67.5424 81.8 74.5109Z" fill="#FD706B"/>
<g id="Mask Group">
<mask id="mask0_94_2" style="mask-type:alpha" maskUnits="userSpaceOnUse" x="0" y="61" width="88" height="37">
<path id="Combined Shape_3" d="M81.8 74.5109C85.2272 81.4794 87.2 97.5509 87.2 97.5509H0.799999C0.799999 97.5509 2.77352 81.4776 6.2 74.5109C9.62648 67.5442 29.636 61.0826 29.636 61.0826C33.4927 69 54.6589 69 58.3536 61.08C58.3536 61.08 78.3728 67.5424 81.8 74.5109Z" fill="url(#paint0_linear_94_2)"/>
</mask>
<g mask="url(#mask0_94_2)">
<g id="Group 21_2">
<path id="Combined Shape_4" d="M-2.80001 90.2401V87.3601H90.8V90.2401H-2.80001ZM-2.80001 83.0401V80.1601H90.8V83.0401H-2.80001ZM-2.80001 75.8401V72.9601H90.8V75.8401H-2.80001Z" fill="#DD5752"/>
</g>
</g>
</g>
</g>
</g>
<defs>
<linearGradient id="paint0_linear_94_2" x1="44" y1="97.5509" x2="44" y2="61.08" gradientUnits="userSpaceOnUse">
<stop stop-color="#E6864E"/>
<stop offset="1" stop-color="#E67240"/>
</linearGradient>
</defs>
</svg>
